# xmcd CD database file
#
# Track frame offsets:
#	150
#	12342
#	22992
#	37637
#	50622
#	63457
#	78445
#	90935
#	103970
#	116132
#	128975
#	142477
#	155262
#	168992
#	182110
#	195007
#	208945
#	218690
#
# Disc length: 3098 seconds
#
# Revision: 5
# Processed by: cddbd v1.5.2PL0 Copyright (c) Steve Scherf et al.
# Submitted via: CDex 1.51
#
DISCID=f40c1812
DTITLE=Willie Dixon - The Chess Box Willie Dixon (Disc-1)
DYEAR=1988
DGENRE=Blues
TTITLE0=My Babe - Little Walter
TTITLE1=Violent Love - The Big Three
TTITLE2=Third Degree - Eddie Boyd
TTITLE3=Seventh Son - Willie Mabon
TTITLE4=Crazy For My Baby - Willie Dixon
TTITLE5=Pain In My Heart - Willie Dixon
TTITLE6=Hoochie Coochie Man - Muddy Waters
TTITLE7=Evil - Howlin' Wolf
TTITLE8=Mellow Down Easy - Little Walter
TTITLE9=When The Lights Go Out - Jimmy Witherspoon
TTITLE10=Young Fashioned Ways - Muddy Waters
TTITLE11=Pretty Thing - Bo Diddley
TTITLE12=I'm Ready - Muddy Waters
TTITLE13=Do Me Right - Lowell Fulson
TTITLE14=I Just Want To Make Love To You - Muddy Waters
TTITLE15=Tollin' Bells - Lowell Fulson
TTITLE16=29 Ways - Willie Dixon
TTITLE17=Walkin' The Blues - Willie Dixon
EXTD=YEAR: 1988
EXTT0=
EXTT1=
EXTT2=
EXTT3=
EXTT4=
EXTT5=
EXTT6=
EXTT7=
EXTT8=
EXTT9=
EXTT10=
EXTT11=
EXTT12=
EXTT13=
EXTT14=
EXTT15=
EXTT16=
EXTT17=
PLAYORDER=
